<svg xmlns="http://www.w3.org/2000/svg" width="237" height="153" viewBox="0 0 237 153" version="1.1"><path d="M 64 1.038 C 60.975 1.519, 56.925 2.370, 55 2.929 L 51.500 3.945 55 3.468 C 70.811 1.315, 75.278 1.040, 82.261 1.789 C 86.529 2.247, 89.679 2.298, 89.261 1.902 C 88.007 0.716, 69.911 0.097, 64 1.038 M 66 4.009 C 64.075 4.453, 60.925 5.049, 59 5.333 C 51.555 6.433, 38.306 12.307, 33.757 16.524 C 32.289 17.886, 30.730 19.016, 30.294 19.036 C 28.794 19.104, 17 33.173, 17 34.894 C 17 35.502, 16.550 36, 16 36 C 15.450 36, 15 36.675, 15 37.500 C 15 38.325, 14.633 39, 14.185 39 C 13.737 39, 12.619 40.575, 11.701 42.500 C 10.783 44.425, 10.475 46, 11.016 46 C 11.557 46, 12 45.565, 12 45.034 C 12 43.790, 19.519 32.115, 22.005 29.500 C 37.873 12.803, 48.783 7.671, 77 3.630 C 78.375 3.433, 77.250 3.256, 74.500 3.237 C 71.750 3.217, 67.925 3.564, 66 4.009 M 91.750 3.662 C 92.438 3.940, 93.563 3.940, 94.250 3.662 C 94.938 3.385, 94.375 3.158, 93 3.158 C 91.625 3.158, 91.063 3.385, 91.750 3.662 M 82 5 C 83.375 5.440, 85.850 5.792, 87.500 5.782 L 90.500 5.763 87.500 5 C 85.850 4.580, 83.375 4.228, 82 4.218 L 79.500 4.199 82 5 M 97.813 4.683 C 98.534 4.972, 99.397 4.936, 99.729 4.604 C 100.061 4.272, 99.471 4.036, 98.417 4.079 C 97.252 4.127, 97.015 4.364, 97.813 4.683 M 43.500 7 C 41.850 8.093, 40.950 8.980, 41.500 8.971 C 42.503 8.955, 47.940 5.058, 47 5.029 C 46.725 5.020, 45.150 5.907, 43.500 7 M 91 6.027 C 91 6.896, 94.882 8.451, 95.503 7.831 C 95.696 7.637, 94.762 6.964, 93.427 6.334 C 92.092 5.704, 91 5.566, 91 6.027 M 101.532 5.885 C 102.100 6.479, 105.116 8.269, 108.234 9.864 C 111.352 11.459, 113.588 13.114, 113.202 13.542 C 112.816 13.970, 113.063 13.997, 113.750 13.601 C 114.438 13.206, 115 12.714, 115 12.509 C 115 12.304, 111.737 10.487, 107.750 8.471 C 103.763 6.455, 100.965 5.291, 101.532 5.885 M 97.376 8.129 C 97.501 8.778, 98.615 9.683, 99.852 10.141 C 101.279 10.669, 101.879 10.613, 101.492 9.987 C 101.156 9.444, 100.271 9, 99.524 9 C 98.778 9, 97.938 8.539, 97.658 7.975 C 97.379 7.411, 97.252 7.481, 97.376 8.129 M 35.441 11.555 C 33.577 13.049, 33.589 13.067, 35.750 12.020 C 36.987 11.420, 38 10.720, 38 10.465 C 38 9.700, 37.481 9.921, 35.441 11.555 M 104 11.393 C 104 11.609, 104.698 12.054, 105.552 12.382 C 106.442 12.723, 106.843 12.555, 106.493 11.989 C 105.906 11.038, 104 10.583, 104 11.393 M 116 14.965 C 116 15.534, 116.627 16, 117.393 16 C 118.159 16, 119.056 16.704, 119.386 17.563 C 119.716 18.423, 120.439 18.847, 120.993 18.504 C 121.547 18.162, 122 18.418, 122 19.073 C 122 19.728, 123.479 21.667, 125.286 23.382 C 131.514 29.292, 141.086 44.573, 140.238 47.250 C 140.107 47.663, 140.417 48, 140.927 48 C 142.702 48, 142.584 44.476, 140.693 41 C 135.853 32.105, 122.628 16.494, 120.858 17.588 C 120.386 17.879, 120 17.657, 120 17.094 C 120 16.531, 119.100 15.589, 118 15 C 116.644 14.274, 116 14.263, 116 14.965 M 111 15.430 C 111 15.705, 111.900 16.411, 113 17 C 114.100 17.589, 115 17.845, 115 17.570 C 115 17.295, 114.100 16.589, 113 16 C 111.900 15.411, 111 15.155, 111 15.430 M 22.958 21.627 C 20.184 24.507, 19.463 25.646, 21.050 24.643 C 23.213 23.277, 28.705 17, 27.738 17 C 27.561 17, 25.410 19.082, 22.958 21.627 M 121.278 24.371 C 124.150 27.325, 126.698 29.565, 126.940 29.348 C 127.491 28.854, 117.850 19, 116.816 19 C 116.398 19, 118.406 21.417, 121.278 24.371 M 13.564 32.707 C 13.022 34.132, 13.136 34.247, 14.124 33.267 C 14.808 32.588, 15.115 31.781, 14.807 31.474 C 14.499 31.166, 13.940 31.721, 13.564 32.707 M 129 32.941 C 129 33.459, 129.445 34.157, 129.989 34.493 C 130.555 34.843, 130.723 34.442, 130.382 33.552 C 129.717 31.820, 129 31.503, 129 32.941 M 132.997 38.750 C 134.305 40.538, 135.532 42, 135.723 42 C 136.483 42, 134.003 38.249, 132.363 36.918 C 131.283 36.040, 131.525 36.739, 132.997 38.750 M 7.965 42.752 C 5.863 46.967, 5.850 47, 6.368 47 C 7.013 47, 10.104 40.770, 9.673 40.339 C 9.488 40.154, 8.719 41.240, 7.965 42.752 M 136.047 44.500 C 136.023 45.986, 137.808 48.526, 138.435 47.898 C 138.735 47.599, 138.323 46.487, 137.521 45.427 C 136.720 44.367, 136.056 43.950, 136.047 44.500 M 9.500 48 C 9.840 48.550, 10.316 49, 10.559 49 C 10.802 49, 11 48.550, 11 48 C 11 47.450, 10.523 47, 9.941 47 C 9.359 47, 9.160 47.450, 9.500 48 M 7.506 52.250 C 6.649 54.906, 5.820 61.191, 6.616 59 C 6.916 58.175, 7.797 55.813, 8.573 53.750 C 9.349 51.688, 9.590 50, 9.109 50 C 8.627 50, 7.906 51.013, 7.506 52.250 M 4.158 54 C 4.158 55.375, 4.385 55.938, 4.662 55.250 C 4.940 54.563, 4.940 53.438, 4.662 52.750 C 4.385 52.063, 4.158 52.625, 4.158 54 M 2.640 58.750 C 2.369 59.712, 1.898 62.525, 1.594 65 C 0.952 70.229, 2.306 66.805, 3.275 60.750 C 3.894 56.876, 3.511 55.668, 2.640 58.750 M 5.079 62.583 C 5.127 63.748, 5.364 63.985, 5.683 63.188 C 5.972 62.466, 5.936 61.603, 5.604 61.271 C 5.272 60.939, 5.036 61.529, 5.079 62.583 M 43.263 64.116 C 39.089 65.321, 36.624 69.919, 36.624 76.500 C 36.624 86.109, 42.014 91.018, 50.912 89.515 C 57.903 88.334, 61.965 80.679, 59.903 72.570 C 57.716 63.969, 52.661 61.401, 43.263 64.116 M 140.299 64.960 C 130.859 70.715, 132.411 86.343, 142.911 91.250 C 148.215 93.729, 149.455 93.482, 152.962 89.250 C 155.360 86.358, 156.005 84.700, 155.785 82 C 155.560 79.238, 155.025 78.433, 153.250 78.180 C 151.458 77.926, 151 78.345, 151 80.239 C 151 83.288, 148.590 86.764, 147.594 85.151 C 147.202 84.518, 146.035 84, 144.999 84 C 143.275 84, 143.165 83.388, 143.696 76.750 C 144.016 72.763, 144.327 69.432, 144.388 69.348 C 144.450 69.264, 145.625 69.039, 147 68.848 C 149.088 68.557, 149.552 68.953, 149.816 71.250 C 150.161 74.246, 151.636 74.718, 154.381 72.711 C 155.681 71.760, 155.964 70.704, 155.458 68.687 C 154.047 63.068, 146.461 61.202, 140.299 64.960 M 158.011 64.487 C 156.345 66.494, 157.368 68.747, 160.189 69.286 C 162.220 69.674, 162.163 69.744, 159.714 69.864 L 156.928 70 157.214 79.750 C 157.489 89.129, 157.590 89.513, 159.852 89.833 C 161.145 90.016, 163.283 89.895, 164.602 89.564 C 166.922 88.982, 167 88.653, 167 79.481 C 167 71.567, 166.743 70, 165.443 70 C 164.058 70, 164.050 69.767, 165.368 67.885 C 166.183 66.722, 166.610 65.147, 166.318 64.385 C 165.605 62.529, 159.575 62.603, 158.011 64.487 M 204.750 63.689 C 203.036 64.137, 202.773 65.205, 202.456 73 C 202.137 80.818, 202.164 80.754, 199.500 80.245 C 197.360 79.836, 197 80.136, 197 82.324 C 197 85.330, 195.154 86.852, 193.904 84.878 C 192.897 83.289, 192.713 76.911, 193.607 74.582 C 194.455 72.373, 196 72.605, 196 74.941 C 196 77.554, 197.521 78.326, 200.027 76.985 C 202.380 75.726, 201.955 72.432, 199.149 70.172 C 196.843 68.314, 189.190 69.473, 186.389 72.104 L 184.165 74.194 183.832 71.847 C 183.533 69.735, 182.967 69.490, 178.184 69.401 C 167.565 69.204, 167.890 68.863, 168.215 79.873 L 168.500 89.500 172.500 89.500 L 176.500 89.500 176.798 83.250 L 177.095 77 180.409 77 C 183.307 77, 183.669 77.282, 183.292 79.253 C 182.061 85.694, 188.061 90.668, 195.685 89.525 C 199.153 89.004, 200.364 88.295, 201.303 86.235 L 202.499 83.609 203.009 86.554 C 203.474 89.238, 203.875 89.500, 207.510 89.500 L 211.500 89.500 211.779 76.250 L 212.058 63 209.279 63.116 C 207.751 63.180, 205.713 63.438, 204.750 63.689 M 4.632 69.090 C 4.284 70.828, 4.063 74.556, 4.140 77.375 C 4.256 81.646, 4.407 81.167, 5.045 74.500 C 5.853 66.047, 5.684 63.831, 4.632 69.090 M 46.633 70.086 C 45.212 77.189, 46.800 87.633, 48.964 85.413 C 51.378 82.934, 50.892 68.131, 48.369 67.290 C 47.762 67.087, 46.981 68.346, 46.633 70.086 M 65.361 69.715 L 62.223 70.110 61.800 80.805 C 61.240 94.935, 61.262 95, 66.550 95 C 70.516 95, 70.893 94.776, 71.184 92.250 C 71.430 90.104, 72.049 89.476, 74 89.392 C 75.375 89.332, 77.084 89.219, 77.798 89.142 C 78.512 89.064, 79.710 87.541, 80.460 85.758 L 81.823 82.517 83.049 85.209 C 85.053 89.607, 91.776 91.201, 96.979 88.511 C 100.007 86.945, 102.080 82.860, 100.169 82.223 C 99.374 81.958, 99.376 81.371, 100.174 80.093 C 101.696 77.656, 100.048 73.125, 96.742 70.657 C 92.878 67.772, 86.398 69.282, 83.373 73.773 L 81.169 77.045 80.503 74.014 C 79.466 69.292, 76.167 68.355, 65.361 69.715 M 105.211 69.985 C 103.402 70.268, 101.939 70.838, 101.961 71.250 C 101.982 71.662, 102 76.076, 102 81.057 L 102 90.115 106.250 89.807 L 110.500 89.500 111.045 82 L 111.591 74.500 112.045 82 L 112.500 89.500 115.877 89.823 C 117.735 90, 119.671 89.729, 120.180 89.220 C 121.714 87.686, 121.739 73.072, 120.211 70.890 C 118.843 68.938, 113.828 68.635, 105.211 69.985 M 219.354 69.692 C 215.451 70.456, 213.571 73.667, 213.571 79.573 C 213.571 83.704, 214.059 85.504, 215.595 87.040 C 219.877 91.322, 228.951 90.396, 231.205 85.448 C 232.164 83.344, 232.115 82.685, 230.943 81.944 C 229.946 81.313, 229.887 81.026, 230.750 81.015 C 233.773 80.978, 230.867 70.930, 227.455 69.621 C 225.751 68.967, 222.933 68.992, 219.354 69.692 M 0.070 76.083 C 0.109 79.063, 0.505 82.400, 0.950 83.500 C 1.413 84.644, 1.540 82.506, 1.247 78.500 C 0.626 70, -0.026 68.661, 0.070 76.083 M 91.079 75.583 C 91.127 76.748, 91.364 76.985, 91.683 76.188 C 91.972 75.466, 91.936 74.603, 91.604 74.271 C 91.272 73.939, 91.036 74.529, 91.079 75.583 M 222 75.500 C 222 76.325, 222.436 77, 222.969 77 C 223.501 77, 223.678 76.325, 223.362 75.500 C 223.045 74.675, 222.609 74, 222.393 74 C 222.177 74, 222 74.675, 222 75.500 M 71.252 79.500 C 71.263 81.700, 71.468 82.482, 71.707 81.238 C 71.946 79.994, 71.937 78.194, 71.687 77.238 C 71.437 76.282, 71.241 77.300, 71.252 79.500 M 91 81.566 C 91 81.877, 91.481 83.031, 92.070 84.130 C 92.924 85.726, 93.428 85.890, 94.570 84.942 C 96.834 83.063, 96.275 81, 93.500 81 C 92.125 81, 91 81.255, 91 81.566 M 222 81.809 C 222 82.254, 222.666 83.491, 223.481 84.559 C 224.763 86.239, 225.097 86.298, 225.966 85 C 227.658 82.470, 227.120 81, 224.500 81 C 223.125 81, 222 81.364, 222 81.809 M 5.195 85.500 C 5.215 87.150, 5.439 87.704, 5.693 86.731 C 5.947 85.758, 5.930 84.408, 5.656 83.731 C 5.382 83.054, 5.175 83.850, 5.195 85.500 M 1.737 86.750 C 1.528 87.162, 1.684 88.850, 2.084 90.500 C 2.777 93.359, 2.806 93.324, 2.701 89.750 C 2.589 85.940, 2.418 85.408, 1.737 86.750 M 6.079 94.583 C 6.127 95.748, 6.364 95.985, 6.683 95.188 C 6.972 94.466, 6.936 93.603, 6.604 93.271 C 6.272 92.939, 6.036 93.529, 6.079 94.583 M 4.015 98.583 C 4.024 99.638, 4.487 101.175, 5.046 102 C 5.787 103.095, 5.880 102.691, 5.390 100.500 C 4.567 96.823, 3.995 96.025, 4.015 98.583 M 7.545 99.250 C 7.919 100.487, 8.636 101.940, 9.140 102.477 C 9.643 103.015, 9.548 102.002, 8.929 100.227 C 7.663 96.594, 6.493 95.769, 7.545 99.250 M 6 105.341 C 6 106.438, 11.339 115.994, 11.733 115.600 C 11.932 115.402, 10.886 113.048, 9.410 110.370 C 6.462 105.020, 6 104.339, 6 105.341 M 134.381 111.250 C 130.962 117.051, 130.885 117.364, 133.656 114.190 C 137.776 109.472, 138.420 111.287, 134.746 117.258 C 127.452 129.113, 109.944 143.823, 101.018 145.597 C 100.203 145.759, 99.377 146.368, 99.183 146.952 C 98.988 147.535, 98.464 147.787, 98.018 147.511 C 97.572 147.235, 95.698 147.707, 93.853 148.560 C 91.612 149.596, 91.329 149.903, 93 149.486 C 94.375 149.144, 96.748 148.676, 98.274 148.448 C 101.741 147.930, 112.528 142.253, 118.776 137.659 C 127.909 130.943, 140 116.120, 140 111.639 C 140 109.669, 135.497 109.357, 134.381 111.250 M 13 111.709 C 13 112.354, 13.457 113.165, 14.016 113.510 C 14.575 113.856, 14.774 114.557, 14.457 115.069 C 14.141 115.581, 14.373 116, 14.973 116 C 15.573 116, 16.471 117.013, 16.969 118.250 C 17.466 119.487, 17.902 119.914, 17.937 119.197 C 17.971 118.480, 16.875 116.238, 15.500 114.215 C 14.125 112.191, 13 111.064, 13 111.709 M 13.080 119 C 14.538 122.061, 15 122.628, 15 121.358 C 15 120.821, 14.300 119.509, 13.445 118.441 C 11.978 116.611, 11.958 116.643, 13.080 119 M 125.924 123.750 L 123.500 126.500 126.250 124.076 C 128.820 121.810, 129.459 121, 128.674 121 C 128.495 121, 127.258 122.237, 125.924 123.750 M 18 126.378 C 18 126.585, 18.788 127.373, 19.750 128.128 C 21.336 129.371, 21.371 129.336, 20.128 127.750 C 18.821 126.084, 18 125.555, 18 126.378 M 29.427 131.778 C 31.037 133.539, 32.553 134.780, 32.796 134.537 C 33.277 134.056, 31.632 132.335, 28.496 130.038 C 27.398 129.234, 27.817 130.017, 29.427 131.778 M 116.924 132.750 L 114.500 135.500 117.250 133.076 C 118.763 131.742, 120 130.505, 120 130.326 C 120 129.541, 119.190 130.180, 116.924 132.750 M 26.226 134.579 C 27.176 135.570, 28.168 136.166, 28.431 135.903 C 28.694 135.640, 27.917 134.829, 26.705 134.100 C 24.598 132.835, 24.577 132.857, 26.226 134.579 M 34 135.814 C 34 136.565, 41.479 141, 42.745 141 C 43.050 141, 41.436 139.650, 39.159 138 C 34.784 134.831, 34 134.499, 34 135.814 M 32.500 139.531 C 34.150 140.883, 36.175 141.964, 37 141.932 C 37.954 141.894, 37.760 141.573, 36.465 141.048 C 35.346 140.595, 33.829 139.498, 33.093 138.612 C 32.357 137.725, 31.248 137.016, 30.628 137.036 C 30.007 137.056, 30.850 138.179, 32.500 139.531 M 107.250 139.115 C 103.841 141.298, 102.738 142.764, 105.750 141.108 C 108.044 139.847, 111.639 137.068, 111 137.049 C 110.725 137.040, 109.037 137.970, 107.250 139.115 M 40.226 143.579 C 41.176 144.570, 42.168 145.166, 42.431 144.903 C 42.694 144.640, 41.917 143.829, 40.705 143.100 C 38.598 141.835, 38.577 141.857, 40.226 143.579 M 47.500 143 C 47.840 143.550, 48.316 144, 48.559 144 C 48.802 144, 49 143.550, 49 143 C 49 142.450, 48.523 142, 47.941 142 C 47.359 142, 47.160 142.450, 47.500 143 M 99 143 C 98.099 143.582, 97.975 143.975, 98.691 143.985 C 99.346 143.993, 100.160 143.550, 100.500 143 C 101.267 141.758, 100.921 141.758, 99 143 M 50 144.051 C 50 145.108, 55.858 147.038, 56.401 146.161 C 56.645 145.765, 55.305 144.959, 53.423 144.370 C 51.540 143.781, 50 143.637, 50 144.051 M 94.250 144.706 C 93.013 144.944, 92 145.516, 92 145.976 C 92 147.008, 95.826 146.091, 96.575 144.879 C 96.873 144.396, 96.979 144.061, 96.809 144.136 C 96.639 144.211, 95.487 144.467, 94.250 144.706 M 48.768 148.168 C 49.350 148.750, 50.415 149.028, 51.137 148.788 C 51.886 148.538, 51.432 148.085, 50.080 147.731 C 48.417 147.296, 48.026 147.426, 48.768 148.168 M 60.750 147.662 C 61.438 147.940, 62.563 147.940, 63.250 147.662 C 63.938 147.385, 63.375 147.158, 62 147.158 C 60.625 147.158, 60.063 147.385, 60.750 147.662 M 82.500 148.047 C 81.106 148.678, 81.712 148.768, 84.500 148.344 C 86.700 148.009, 88.688 147.569, 88.917 147.367 C 89.776 146.610, 84.420 147.177, 82.500 148.047 M 76.269 148.693 C 77.242 148.947, 78.592 148.930, 79.269 148.656 C 79.946 148.382, 79.150 148.175, 77.500 148.195 C 75.850 148.215, 75.296 148.439, 76.269 148.693 M 86.613 150.197 C 85.494 150.823, 79.603 151.068, 71.636 150.820 C 64.414 150.595, 59.629 150.724, 61.002 151.106 C 62.376 151.488, 68.450 151.801, 74.500 151.801 C 85.405 151.801, 91.416 150.993, 89.469 149.790 C 88.912 149.446, 87.627 149.629, 86.613 150.197" stroke="none" fill="#0c1f10" fill-rule="evenodd"/><path d="M 69.500 1.513 C 55.669 3.220, 47.995 4.892, 45.025 6.845 C 43.636 7.758, 40.333 9.629, 37.684 11.003 C 32.674 13.601, 18.802 26.286, 15.269 31.500 C 11.058 37.715, 5.837 48.574, 4.954 52.955 C 4.450 55.455, 3.340 60.650, 2.487 64.500 C 0.882 71.746, 0.762 85.598, 2.287 87.697 C 2.766 88.355, 3.032 89.930, 2.879 91.197 C 2.726 92.464, 3.088 94.400, 3.682 95.500 C 4.277 96.600, 5.100 99.075, 5.512 101 C 6.526 105.747, 14.855 121.761, 18.245 125.485 C 19.755 127.143, 20.993 128.835, 20.995 129.244 C 20.998 129.653, 22.785 131.280, 24.966 132.861 C 27.148 134.441, 28.687 135.980, 28.386 136.280 C 27.340 137.327, 38.554 145.314, 46.447 149.144 L 54.394 153 78.217 153 C 101.166 153, 102.260 152.910, 108.046 150.559 C 117.077 146.890, 127.103 139.766, 134.534 131.740 C 143.783 121.750, 146.861 115.261, 143.800 112.200 C 141.738 110.138, 140.578 110.917, 138.085 116.038 C 135.245 121.871, 125.695 132.585, 118.868 137.597 C 112.527 142.252, 101.755 147.928, 98.274 148.448 C 96.748 148.676, 94.375 149.144, 93 149.486 C 91.329 149.903, 91.612 149.596, 93.853 148.560 C 95.698 147.707, 97.572 147.235, 98.018 147.511 C 98.464 147.787, 98.988 147.535, 99.183 146.952 C 99.377 146.368, 100.203 145.759, 101.018 145.597 C 109.966 143.818, 127.453 129.111, 134.782 117.200 C 139.331 109.806, 136.941 109.830, 131.630 117.231 C 129.155 120.679, 124.514 126.031, 121.315 129.125 C 115.444 134.805, 105.450 142, 103.433 142 C 102.831 142, 100.160 143.103, 97.496 144.452 C 94.832 145.800, 92.261 146.662, 91.783 146.366 C 91.304 146.070, 90.338 146.305, 89.635 146.888 C 85.573 150.259, 66.477 148.054, 53.277 142.691 C 37.211 136.163, 22.689 121.412, 16.171 105 C 1.259 67.457, 20.424 25.234, 58.148 12.517 C 65.380 10.079, 68.109 9.691, 78.500 9.626 C 92.060 9.540, 98.319 10.962, 108.842 16.518 C 112.330 18.360, 115.726 19.658, 116.390 19.404 C 117.649 18.921, 121.834 22.764, 121.939 24.500 C 121.973 25.050, 122.563 25.520, 123.250 25.545 C 123.938 25.570, 124.376 26.166, 124.225 26.870 C 124.074 27.573, 124.423 27.856, 125.001 27.499 C 125.591 27.135, 126.522 28.199, 127.123 29.924 C 127.713 31.614, 128.601 32.747, 129.097 32.440 C 129.594 32.133, 130 32.324, 130 32.864 C 130 33.405, 131.165 35.231, 132.588 36.923 C 134.012 38.615, 135.270 40.562, 135.385 41.249 C 135.499 41.937, 136.815 44.412, 138.309 46.750 C 141.400 51.587, 145.124 52.506, 147.050 48.907 C 148.649 45.919, 147.675 43.177, 142.002 34.695 C 135.996 25.715, 127.712 17.830, 117.810 11.668 C 108.727 6.015, 87.376 -1.425, 89.348 1.750 C 89.604 2.163, 87.268 2.299, 84.157 2.054 C 78.500 1.608, 78.500 1.608, 82.500 0.946 C 86.499 0.284, 86.499 0.284, 83 0.281 C 81.075 0.280, 75 0.834, 69.500 1.513 M 66 4.009 C 64.075 4.453, 60.925 5.049, 59 5.333 C 51.555 6.433, 38.306 12.307, 33.757 16.524 C 32.289 17.886, 30.730 19.016, 30.294 19.036 C 28.794 19.104, 17 33.173, 17 34.894 C 17 35.502, 16.550 36, 16 36 C 15.450 36, 15 36.675, 15 37.500 C 15 38.325, 14.633 39, 14.185 39 C 13.737 39, 12.619 40.575, 11.701 42.500 C 10.783 44.425, 10.475 46, 11.016 46 C 11.557 46, 12 45.565, 12 45.034 C 12 43.790, 19.519 32.115, 22.005 29.500 C 37.873 12.803, 48.783 7.671, 77 3.630 C 78.375 3.433, 77.250 3.256, 74.500 3.237 C 71.750 3.217, 67.925 3.564, 66 4.009 M 91.750 3.662 C 92.438 3.940, 93.563 3.940, 94.250 3.662 C 94.938 3.385, 94.375 3.158, 93 3.158 C 91.625 3.158, 91.063 3.385, 91.750 3.662 M 82 5 C 83.375 5.440, 85.850 5.792, 87.500 5.782 L 90.500 5.763 87.500 5 C 85.850 4.580, 83.375 4.228, 82 4.218 L 79.500 4.199 82 5 M 97.813 4.683 C 98.534 4.972, 99.397 4.936, 99.729 4.604 C 100.061 4.272, 99.471 4.036, 98.417 4.079 C 97.252 4.127, 97.015 4.364, 97.813 4.683 M 91 6.027 C 91 6.896, 94.882 8.451, 95.503 7.831 C 95.696 7.637, 94.762 6.964, 93.427 6.334 C 92.092 5.704, 91 5.566, 91 6.027 M 101.532 5.885 C 102.100 6.479, 105.116 8.269, 108.234 9.864 C 111.352 11.459, 113.588 13.114, 113.202 13.542 C 112.816 13.970, 113.063 13.997, 113.750 13.601 C 114.438 13.206, 115 12.714, 115 12.509 C 115 12.304, 111.737 10.487, 107.750 8.471 C 103.763 6.455, 100.965 5.291, 101.532 5.885 M 97.376 8.129 C 97.501 8.778, 98.615 9.683, 99.852 10.141 C 101.279 10.669, 101.879 10.613, 101.492 9.987 C 101.156 9.444, 100.271 9, 99.524 9 C 98.778 9, 97.938 8.539, 97.658 7.975 C 97.379 7.411, 97.252 7.481, 97.376 8.129 M 104 11.393 C 104 11.609, 104.698 12.054, 105.552 12.382 C 106.442 12.723, 106.843 12.555, 106.493 11.989 C 105.906 11.038, 104 10.583, 104 11.393 M 116 14.965 C 116 15.534, 116.627 16, 117.393 16 C 118.159 16, 119.056 16.704, 119.386 17.563 C 119.716 18.423, 120.439 18.847, 120.993 18.504 C 121.547 18.162, 122 18.418, 122 19.073 C 122 19.728, 123.479 21.667, 125.286 23.382 C 131.514 29.292, 141.086 44.573, 140.238 47.250 C 140.107 47.663, 140.417 48, 140.927 48 C 142.702 48, 142.584 44.476, 140.693 41 C 135.853 32.105, 122.628 16.494, 120.858 17.588 C 120.386 17.879, 120 17.657, 120 17.094 C 120 16.531, 119.100 15.589, 118 15 C 116.644 14.274, 116 14.263, 116 14.965 M 111 15.430 C 111 15.705, 111.900 16.411, 113 17 C 114.100 17.589, 115 17.845, 115 17.570 C 115 17.295, 114.100 16.589, 113 16 C 111.900 15.411, 111 15.155, 111 15.430 M 117 21.500 C 117.685 22.325, 118.672 23, 119.194 23 C 119.716 23, 119.468 22.325, 118.643 21.500 C 117.818 20.675, 116.831 20, 116.449 20 C 116.067 20, 116.315 20.675, 117 21.500 M 9.500 48 C 9.840 48.550, 10.316 49, 10.559 49 C 10.802 49, 11 48.550, 11 48 C 11 47.450, 10.523 47, 9.941 47 C 9.359 47, 9.160 47.450, 9.500 48 M 7.506 52.250 C 6.649 54.906, 5.820 61.191, 6.616 59 C 6.916 58.175, 7.797 55.813, 8.573 53.750 C 9.349 51.688, 9.590 50, 9.109 50 C 8.627 50, 7.906 51.013, 7.506 52.250 M 5.079 62.583 C 5.127 63.748, 5.364 63.985, 5.683 63.188 C 5.972 62.466, 5.936 61.603, 5.604 61.271 C 5.272 60.939, 5.036 61.529, 5.079 62.583 M 166.273 64.269 C 166.590 65.095, 166.183 66.722, 165.368 67.885 C 164.050 69.767, 164.058 70, 165.443 70 C 166.743 70, 167 71.567, 167 79.481 C 167 88.653, 166.922 88.982, 164.602 89.564 C 163.283 89.895, 161.145 90.016, 159.852 89.833 C 157.590 89.513, 157.489 89.129, 157.214 79.750 L 156.928 70 159.714 69.864 C 162.152 69.745, 162.212 69.673, 160.196 69.287 C 158.929 69.045, 157.478 67.756, 156.971 66.423 C 156.464 65.091, 155.390 64, 154.584 64 C 153.304 64, 153.300 64.348, 154.553 66.750 C 156.472 70.429, 156.370 71.732, 154.066 72.965 C 151.051 74.578, 150.158 74.218, 149.816 71.250 C 149.552 68.953, 149.088 68.557, 147 68.848 C 145.625 69.039, 144.450 69.264, 144.388 69.348 C 144.327 69.432, 144.016 72.763, 143.696 76.750 C 143.181 83.197, 143.309 84, 144.858 84 C 145.816 84, 147.089 84.489, 147.687 85.087 C 149.294 86.694, 150.411 84.330, 150.148 79.879 C 149.897 75.630, 151.074 74.434, 153.979 75.989 C 157.297 77.765, 156.753 84.630, 152.927 89.272 C 149.564 93.352, 147.246 93.863, 143.434 91.365 C 139.755 88.954, 139.358 90.407, 142.989 92.992 C 147.392 96.127, 153.249 96.731, 156.729 94.408 C 159.047 92.860, 161.159 92.599, 169.645 92.812 C 182.791 93.141, 183.289 92.760, 183.430 82.253 L 183.500 77.007 180.298 77.003 L 177.095 77 176.798 83.250 L 176.500 89.500 172.500 89.500 L 168.500 89.500 168.214 79.750 C 167.943 70.515, 168.035 70, 169.964 70 C 172.282 70, 172.406 69.627, 170.977 66.957 C 169.640 64.459, 165.421 62.048, 166.273 64.269 M 211.779 76.285 L 211.500 89.500 207.510 89.500 C 203.875 89.500, 203.474 89.238, 203.009 86.554 L 202.499 83.609 201.303 86.235 C 200.363 88.298, 199.153 89.004, 195.667 89.527 C 192.967 89.932, 190.303 89.740, 188.864 89.036 C 186.710 87.982, 186.744 88.102, 189.254 90.395 C 191.946 92.854, 192.285 92.901, 204.254 92.479 C 210.989 92.242, 217.175 92.026, 218 92 C 218.825 91.974, 222.281 92.240, 225.680 92.592 C 231.409 93.184, 232.048 93.043, 234.430 90.661 C 236.629 88.462, 237 87.209, 237 81.980 C 237 78.619, 236.514 74.960, 235.920 73.850 C 234.811 71.778, 228.227 68.440, 227.225 69.441 C 226.918 69.749, 227.180 70, 227.808 70 C 229.361 70, 232 75.318, 232 78.450 C 232 79.853, 231.438 81.007, 230.750 81.015 C 229.887 81.026, 229.946 81.313, 230.943 81.944 C 232.115 82.685, 232.164 83.344, 231.205 85.448 C 228.951 90.396, 219.877 91.322, 215.595 87.040 C 212.568 84.013, 212.735 74.975, 215.880 71.628 C 218.629 68.702, 218.098 65.822, 214.510 64.186 L 212.058 63.069 211.779 76.285 M 56.863 66.084 C 61.471 71.029, 61.422 81.670, 56.768 86.709 C 54.300 89.381, 47.652 90.562, 43.500 89.065 L 40.500 87.984 43.425 90.595 C 46.089 92.972, 46.957 93.172, 53.122 92.823 C 56.846 92.613, 60.244 92.089, 60.673 91.660 C 61.103 91.231, 61.628 86.182, 61.840 80.440 C 62.167 71.612, 62.480 69.995, 63.863 69.971 C 66.319 69.927, 59.452 64, 56.945 64 C 54.941 64, 54.940 64.019, 56.863 66.084 M 4.632 69.090 C 4.284 70.828, 4.063 74.556, 4.140 77.375 C 4.256 81.646, 4.407 81.167, 5.045 74.500 C 5.853 66.047, 5.684 63.831, 4.632 69.090 M 46.633 70.086 C 45.212 77.189, 46.800 87.633, 48.964 85.413 C 51.378 82.934, 50.892 68.131, 48.369 67.290 C 47.762 67.087, 46.981 68.346, 46.633 70.086 M 78.172 70.036 C 79.091 70.573, 80.157 72.440, 80.541 74.185 L 81.238 77.359 82.583 74.929 C 84.404 71.642, 84.368 71.489, 81.453 70.161 C 78.380 68.760, 75.819 68.663, 78.172 70.036 M 97.173 70.873 C 100.226 73.330, 101.747 78.395, 100.047 80.444 C 99.203 81.460, 99.214 81.905, 100.091 82.197 C 102.076 82.859, 100.080 86.907, 96.979 88.511 C 91.776 91.201, 85.053 89.607, 83.049 85.209 L 81.823 82.517 80.460 85.758 C 79.710 87.541, 78.512 89.064, 77.798 89.142 C 77.084 89.219, 75.375 89.332, 74 89.392 C 72.049 89.476, 71.430 90.104, 71.184 92.250 C 70.904 94.680, 70.450 95, 67.279 95 C 63.753 95, 63.722 95.035, 65.500 97 C 67.922 99.676, 72.214 99.527, 75.673 96.647 C 80.678 92.481, 85.662 90.631, 88.758 91.790 C 91.597 92.853, 121.176 93.379, 124.228 92.421 C 128.204 91.174, 128.879 76.370, 125.155 72.081 C 124.245 71.032, 122.427 69.860, 121.116 69.477 C 118.892 68.827, 118.827 68.915, 120.143 70.793 C 121.734 73.066, 121.764 87.636, 120.180 89.220 C 119.671 89.729, 117.735 90, 115.877 89.823 L 112.500 89.500 111.955 82 L 111.409 74.500 110.955 82 L 110.500 89.500 106.250 89.807 L 102 90.115 101.985 81.307 C 101.976 76.463, 101.634 71.973, 101.225 71.329 C 100.815 70.685, 99.134 69.835, 97.490 69.440 L 94.500 68.722 97.173 70.873 M 183.763 71.542 C 184.231 73.991, 184.321 74.020, 186.190 72.328 C 188.043 70.651, 188.049 70.540, 186.315 69.856 C 183.441 68.723, 183.249 68.850, 183.763 71.542 M 199.208 70.250 C 201.958 72.412, 202.363 75.736, 200.027 76.985 C 197.521 78.326, 196 77.554, 196 74.941 C 196 72.605, 194.455 72.373, 193.607 74.582 C 192.713 76.911, 192.897 83.289, 193.904 84.878 C 195.154 86.852, 197 85.330, 197 82.324 C 197 80.162, 197.372 79.838, 199.406 80.227 C 201.380 80.604, 201.909 80.203, 202.352 77.992 C 203.280 73.348, 201.470 69.063, 198.559 69.015 C 198.041 69.007, 198.333 69.563, 199.208 70.250 M 91.079 75.583 C 91.127 76.748, 91.364 76.985, 91.683 76.188 C 91.972 75.466, 91.936 74.603, 91.604 74.271 C 91.272 73.939, 91.036 74.529, 91.079 75.583 M 222 75.500 C 222 76.325, 222.436 77, 222.969 77 C 223.501 77, 223.678 76.325, 223.362 75.500 C 223.045 74.675, 222.609 74, 222.393 74 C 222.177 74, 222 74.675, 222 75.500 M 71.252 79.500 C 71.263 81.700, 71.468 82.482, 71.707 81.238 C 71.946 79.994, 71.937 78.194, 71.687 77.238 C 71.437 76.282, 71.241 77.300, 71.252 79.500 M 91 81.566 C 91 81.877, 91.481 83.031, 92.070 84.130 C 92.924 85.726, 93.428 85.890, 94.570 84.942 C 96.834 83.063, 96.275 81, 93.500 81 C 92.125 81, 91 81.255, 91 81.566 M 222 81.809 C 222 82.254, 222.666 83.491, 223.481 84.559 C 224.763 86.239, 225.097 86.298, 225.966 85 C 227.658 82.470, 227.120 81, 224.500 81 C 223.125 81, 222 81.364, 222 81.809 M 5.195 85.500 C 5.215 87.150, 5.439 87.704, 5.693 86.731 C 5.947 85.758, 5.930 84.408, 5.656 83.731 C 5.382 83.054, 5.175 83.850, 5.195 85.500 M 6.079 94.583 C 6.127 95.748, 6.364 95.985, 6.683 95.188 C 6.972 94.466, 6.936 93.603, 6.604 93.271 C 6.272 92.939, 6.036 93.529, 6.079 94.583 M 7.545 99.250 C 7.919 100.487, 8.636 101.940, 9.140 102.477 C 9.643 103.015, 9.548 102.002, 8.929 100.227 C 7.663 96.594, 6.493 95.769, 7.545 99.250 M 13 111.709 C 13 112.354, 13.457 113.165, 14.016 113.510 C 14.575 113.856, 14.774 114.557, 14.457 115.069 C 14.141 115.581, 14.373 116, 14.973 116 C 15.573 116, 16.471 117.013, 16.969 118.250 C 17.466 119.487, 17.902 119.914, 17.937 119.197 C 17.971 118.480, 16.875 116.238, 15.500 114.215 C 14.125 112.191, 13 111.064, 13 111.709 M 29.427 131.778 C 31.037 133.539, 32.553 134.780, 32.796 134.537 C 33.277 134.056, 31.632 132.335, 28.496 130.038 C 27.398 129.234, 27.817 130.017, 29.427 131.778 M 34 135.814 C 34 136.565, 41.479 141, 42.745 141 C 43.050 141, 41.436 139.650, 39.159 138 C 34.784 134.831, 34 134.499, 34 135.814 M 32.500 139.531 C 34.150 140.883, 36.175 141.964, 37 141.932 C 37.954 141.894, 37.760 141.573, 36.465 141.048 C 35.346 140.595, 33.829 139.498, 33.093 138.612 C 32.357 137.725, 31.248 137.016, 30.628 137.036 C 30.007 137.056, 30.850 138.179, 32.500 139.531 M 40.226 143.579 C 41.176 144.570, 42.168 145.166, 42.431 144.903 C 42.694 144.640, 41.917 143.829, 40.705 143.100 C 38.598 141.835, 38.577 141.857, 40.226 143.579 M 47.500 143 C 47.840 143.550, 48.316 144, 48.559 144 C 48.802 144, 49 143.550, 49 143 C 49 142.450, 48.523 142, 47.941 142 C 47.359 142, 47.160 142.450, 47.500 143 M 50 144.051 C 50 145.108, 55.858 147.038, 56.401 146.161 C 56.645 145.765, 55.305 144.959, 53.423 144.370 C 51.540 143.781, 50 143.637, 50 144.051 M 48.768 148.168 C 49.350 148.750, 50.415 149.028, 51.137 148.788 C 51.886 148.538, 51.432 148.085, 50.080 147.731 C 48.417 147.296, 48.026 147.426, 48.768 148.168 M 60.750 147.662 C 61.438 147.940, 62.563 147.940, 63.250 147.662 C 63.938 147.385, 63.375 147.158, 62 147.158 C 60.625 147.158, 60.063 147.385, 60.750 147.662 M 86.613 150.197 C 85.494 150.823, 79.603 151.068, 71.636 150.820 C 64.414 150.595, 59.629 150.724, 61.002 151.106 C 62.376 151.488, 68.450 151.801, 74.500 151.801 C 85.405 151.801, 91.416 150.993, 89.469 149.790 C 88.912 149.446, 87.627 149.629, 86.613 150.197" stroke="none" fill="#000000" fill-rule="evenodd"/></svg>